<?xml version="1.0" encoding="UTF-8" standalone="no"?>
<!DOCTYPE svg PUBLIC "-//W3C//DTD SVG 1.1//EN" "http://www.w3.org/Graphics/SVG/1.1/DTD/svg11.dtd">
<svg width="100%" height="100%" viewBox="0 0 3508 2481" version="1.1" xmlns="http://www.w3.org/2000/svg" xmlns:xlink="http://www.w3.org/1999/xlink" xml:space="preserve" xmlns:serif="http://www.serif.com/" style="fill-rule:evenodd;clip-rule:evenodd;stroke-linecap:round;stroke-linejoin:round;stroke-miterlimit:1.5;">
    <g id="Rects">
        <g id="Outlines">
            <rect x="1594.84" y="909.341" width="21.779" height="58.7" style="fill:none;stroke:black;stroke-width:1px;"/>
            <rect x="2064.82" y="1015.76" width="21.685" height="183.332" style="fill:none;stroke:black;stroke-width:1px;"/>
            <rect x="1523.2" y="1212.41" width="21.602" height="38.419" style="fill:none;stroke:black;stroke-width:1px;"/>
        </g>
    </g>
    <g id="Cloud">
        <g id="Outlines1" serif:id="Outlines">
            <g id="Outline" transform="matrix(1,0,0,1,0,-1.6423)">
                <path d="M1401.94,1760.66L2191.19,1760.66C2225.73,1760.66 2263.37,1724.88 2265.24,1679.23C2267.12,1633.58 2234.85,1618.8 2234.46,1608.42C2234.07,1598.04 2243.55,1592.61 2245.99,1589.22C2248.42,1585.83 2265.74,1568.1 2265.74,1530.71C2265.74,1493.32 2237.87,1438.04 2173.07,1438.04C2108.27,1438.04 2086.45,1492.64 2083.91,1499.17C2081.38,1505.71 2081.98,1521.76 2069.18,1521.76C2056.37,1521.76 2054.09,1506.15 2033.26,1505.8C2012.42,1505.45 1997.65,1525.14 1997.65,1525.14L2015.17,1542.66L1998.25,1559.58C1856.46,1421.45 1848.7,1244.95 1848.7,1244.95C1839.85,1238.92 1834.31,1223.82 1834.31,1223.82L1816.17,1223.82L1816.17,1281L1793.35,1281L1793.35,1224.13L1793.19,1223.82L1758.83,1223.82C1758.83,1223.82 1753.29,1238.92 1744.43,1244.95C1744.43,1244.95 1736.67,1421.45 1594.89,1559.58L1577.97,1542.66L1595.49,1525.14C1595.49,1525.14 1580.71,1505.45 1559.88,1505.8C1539.04,1506.15 1536.76,1521.76 1523.96,1521.76C1511.15,1521.76 1511.76,1505.71 1509.22,1499.17C1506.68,1492.64 1484.86,1438.04 1420.06,1438.04C1355.26,1438.04 1327.39,1493.32 1327.39,1530.71C1327.39,1568.1 1344.71,1585.83 1347.15,1589.22C1349.59,1592.61 1359.06,1598.04 1358.67,1608.42C1358.29,1618.8 1326.02,1633.58 1327.89,1679.23C1329.76,1724.88 1367.4,1760.66 1401.94,1760.66" style="fill:none;stroke:black;stroke-width:1px;"/>
            </g>
            <path d="M1404.08,1707.42L1404.08,1731.07C1392.39,1731.07 1381.47,1727.53 1373.37,1720.39C1365.18,1713.16 1359.51,1702.19 1359.51,1686.5L1383.16,1686.5C1383.16,1693.86 1385.17,1699.26 1389.02,1702.65C1392.95,1706.12 1398.4,1707.42 1404.08,1707.42Z" style="fill:none;stroke:black;stroke-width:1px;"/>
            <path d="M1670.22,1605.82L1652.55,1593.95C1652.55,1593.95 1673.34,1562.31 1717.1,1563.64L1716.45,1584.92C1685.32,1583.97 1670.22,1605.82 1670.22,1605.82Z" style="fill:none;stroke:black;stroke-width:1px;"/>
            <path d="M2204.33,1729.42L2206.86,1707.74C2206.86,1707.74 2212.86,1708.3 2218.37,1704.4C2222.66,1701.37 2226.24,1695.72 2227.72,1686.07L2249.29,1689.37C2246.59,1707.01 2238.81,1716.68 2230.96,1722.22C2218.27,1731.19 2204.33,1729.42 2204.33,1729.42Z" style="fill:none;stroke:black;stroke-width:1px;"/>
        </g>
    </g>
    <g id="Rocket">
        <g id="Outlines2" serif:id="Outlines">
            <path id="Cone" d="M1805.6,666.056C1743.49,699 1741.7,781.257 1741.7,781.257L1868.08,780.958C1868.08,780.958 1869.55,708.962 1805.6,666.056" style="fill:none;stroke:black;stroke-width:1px;"/>
            <path id="Body" d="M1870.53,1208.16L1870.74,1129.03L1846.57,1129.03L1846.57,1199.01L1816.53,1199.01L1816.53,1133.74L1793.08,1133.74L1793.08,1198.94L1763.05,1198.94L1763.05,1128.83L1738.94,1128.83L1738.94,1207.08C1738.94,1207.08 1737.01,1240.13 1669.09,1262.53L1669.09,1125.84L1759.75,1013.07L1740.99,997.596L1740.99,805.021L1741.4,805.58L1868.21,805.58L1868.21,998.09L1849.11,1012.73L1939.77,1124.97L1939.77,1262.38C1939.77,1262.38 1877.8,1243.83 1870.53,1208.16" style="fill:none;stroke:black;stroke-width:1px;"/>
        </g>
    </g>
</svg>
